<?xml version="1.0" encoding="UTF-8" standalone="no"?>
<svg
   xmlns:dc="http://purl.org/dc/elements/1.1/"
   xmlns:cc="http://creativecommons.org/ns#"
   xmlns:rdf="http://www.w3.org/1999/02/22-rdf-syntax-ns#"
   xmlns:svg="http://www.w3.org/2000/svg"
   xmlns="http://www.w3.org/2000/svg"
   xmlns:sodipodi="http://sodipodi.sourceforge.net/DTD/sodipodi-0.dtd"
   xmlns:inkscape="http://www.inkscape.org/namespaces/inkscape"
   version="1.1"
   x="0px"
   y="0px"
   viewBox="0 0 66.880753 96.515434"
   xml:space="preserve"
   id="svg957"
   sodipodi:docname="logo--black.svg"
   inkscape:version="1.0.1 (c497b03c, 2020-09-10)"
   width="66.880753"
   height="96.515434"><metadata
   id="metadata963"><rdf:RDF><cc:Work
       rdf:about=""><dc:format>image/svg+xml</dc:format><dc:type
         rdf:resource="http://purl.org/dc/dcmitype/StillImage" /><dc:title></dc:title></cc:Work></rdf:RDF></metadata><defs
   id="defs961" /><sodipodi:namedview
   pagecolor="#ffffff"
   bordercolor="#666666"
   borderopacity="1"
   objecttolerance="10"
   gridtolerance="10"
   guidetolerance="10"
   inkscape:pageopacity="0"
   inkscape:pageshadow="2"
   inkscape:window-width="1417"
   inkscape:window-height="767"
   id="namedview959"
   showgrid="false"
   inkscape:zoom="5.5426145"
   inkscape:cx="34.467857"
   inkscape:cy="45.119885"
   inkscape:window-x="0"
   inkscape:window-y="23"
   inkscape:window-maximized="0"
   inkscape:current-layer="layer1"
   fit-margin-top="0"
   fit-margin-left="0"
   fit-margin-right="0"
   fit-margin-bottom="0"
   inkscape:document-rotation="0" />
<style
   type="text/css"
   id="style925">
	.st0 {
		fill: #FFFFFF;
	}
</style>

<path
   class="st0"
   d="m 16.262626,161.56593 0.9,0.5 c -0.2,0.8 -0.6,1.4 -1.3,1.9 -0.6,0.4 -1.4,0.7 -2.2,0.7 -1.1,0 -2,-0.4 -2.6,-1.1 -0.7,-0.7 -1,-1.6 -1,-2.6 0,-1.1 0.3,-2.1 1,-2.7 0.7,-0.7 1.5,-1 2.6,-1 1,0 1.7,0.3 2.4,0.8 v -0.8 h 0.9 v 2.3 h -0.9 c -0.2,-0.5 -0.5,-0.8 -1,-1.1 -0.4,-0.3 -0.9,-0.4 -1.4,-0.4 -0.7,0 -1.3,0.3 -1.8,0.8 -0.5,0.5 -0.7,1.2 -0.7,2 0,0.8 0.2,1.5 0.7,2 0.5,0.5 1.1,0.8 1.8,0.8 0.6,0 1.1,-0.2 1.5,-0.5 0.6,-0.4 0.9,-0.9 1.1,-1.6"
   id="path929" />
<polygon
   class="st0"
   points="22.3,157 22.3,158 21.4,158 21.4,160 24.6,160 24.6,158 23.7,158 23.7,157 26.5,157 26.5,158 25.6,158 25.6,163.4 26.5,163.4 26.5,164.3 23.7,164.3 23.7,163.4 24.6,163.4 24.6,160.9 21.4,160.9 21.4,163.4 22.3,163.4 22.3,164.3 19.5,164.3 19.5,163.4 20.3,163.4 20.3,158 19.5,158 19.5,157 "
   id="polygon931"
   transform="translate(0.06262638,0.2659269)" />
<polygon
   class="st0"
   points="34.7,157 34.7,159.2 33.8,159.2 33.8,158 30.7,158 30.7,160.1 33.4,160.1 33.4,161 30.7,161 30.7,163.4 33.8,163.4 33.8,162.1 34.7,162.1 34.7,164.3 28.6,164.3 28.6,163.4 29.6,163.4 29.6,158 28.6,158 28.6,157 "
   id="polygon933"
   transform="translate(0.06262638,0.2659269)" />
<polygon
   class="st0"
   points="42.9,157 42.9,159.2 42.1,159.2 42.1,158 39,158 39,160.1 41.6,160.1 41.6,161 39,161 39,163.4 42.1,163.4 42.1,162.1 42.9,162.1 42.9,164.3 36.9,164.3 36.9,163.4 37.9,163.4 37.9,158 36.9,158 36.9,157 "
   id="polygon935"
   transform="translate(0.06262638,0.2659269)" />
<path
   class="st0"
   d="m 45.462626,164.56593 v -2.6 h 0.9 v 0.6 c 0.4,0.8 1,1.2 1.7,1.2 0.4,0 0.7,-0.1 0.9,-0.3 0.2,-0.2 0.4,-0.5 0.4,-0.9 0,-0.3 -0.1,-0.6 -0.3,-0.7 -0.2,-0.1 -0.6,-0.3 -1.1,-0.5 -0.7,-0.2 -1.1,-0.3 -1.4,-0.5 -0.3,-0.2 -0.6,-0.4 -0.7,-0.7 -0.2,-0.3 -0.3,-0.6 -0.3,-1 0,-0.6 0.2,-1.1 0.6,-1.5 0.4,-0.4 0.9,-0.5 1.5,-0.5 0.6,0 1.1,0.2 1.6,0.6 v -0.5 h 0.8 v 2.2 h -0.9 v -0.5 c -0.4,-0.6 -0.9,-0.8 -1.5,-0.8 -0.4,0 -0.7,0.1 -0.9,0.3 -0.2,0.2 -0.3,0.4 -0.3,0.7 0,0.2 0.1,0.4 0.2,0.5 0.1,0.1 0.2,0.3 0.4,0.3 0.2,0.1 0.5,0.2 1,0.3 0.6,0.2 1.1,0.3 1.4,0.5 0.3,0.1 0.5,0.4 0.7,0.7 0.2,0.3 0.3,0.7 0.3,1.2 0,0.6 -0.2,1.1 -0.7,1.5 -0.4,0.4 -1,0.6 -1.6,0.6 -0.7,0 -1.3,-0.2 -1.8,-0.7 v 0.6 h -0.9 z"
   id="path937" />
<polygon
   class="st0"
   points="58.4,157 58.4,159.2 57.5,159.2 57.5,158 54.4,158 54.4,160.1 57.1,160.1 57.1,161 54.4,161 54.4,163.4 57.5,163.4 57.5,162.1 58.4,162.1 58.4,164.3 52.4,164.3 52.4,163.4 53.3,163.4 53.3,158 52.4,158 52.4,157 "
   id="polygon939"
   transform="translate(0.06262638,0.2659269)" />
<polygon
   class="st0"
   points="63.2,159.8 63.2,157 69,157 69,159.8 68.1,159.8 68.1,158 66.7,158 66.7,163.4 67.6,163.4 67.6,164.3 64.6,164.3 64.6,163.4 65.6,163.4 65.6,158 64.1,158 64.1,159.8 "
   id="polygon941"
   transform="translate(0.06262638,0.2659269)" />
<path
   class="st0"
   d="m 75.362626,161.96593 h -2.6 l -0.6,1.6 h 0.9 v 0.9 h -2.9 v -0.9 h 0.9 l 2,-5.5 h -0.9 v -0.8 h 3.7 v 0.8 h -0.9 l 2,5.5 h 0.8 v 0.9 h -2.8 v -0.9 h 0.9 z m -0.3,-0.8 -1,-3 h -0.1 l -1,3 z"
   id="path943" />
<path
   class="st0"
   d="m 80.162626,163.66593 v -5.4 h -1 v -1 h 2.9 c 0.6,0 1.1,0 1.5,0.1 0.4,0.1 0.7,0.3 0.9,0.6 0.2,0.3 0.4,0.7 0.4,1.1 0,1 -0.5,1.6 -1.5,1.8 l 1.3,2.6 h 0.9 v 0.9 h -1.6 l -1.6,-3.4 h -1 v 2.5 h 0.9 v 0.9 h -3 v -0.9 h 0.9 z m 1.1,-3.4 h 0.8 c 0.4,0 0.7,0 0.9,-0.1 0.2,-0.1 0.4,-0.2 0.5,-0.3 0.1,-0.2 0.2,-0.4 0.2,-0.7 0,-0.2 -0.1,-0.4 -0.2,-0.6 -0.1,-0.2 -0.3,-0.3 -0.5,-0.3 -0.2,0 -0.5,-0.1 -0.9,-0.1 h -0.9 z"
   id="path945" />
<polygon
   class="st0"
   points="87,159.8 87,157 92.8,157 92.8,159.8 91.9,159.8 91.9,158 90.5,158 90.5,163.4 91.4,163.4 91.4,164.3 88.4,164.3 88.4,163.4 89.4,163.4 89.4,158 87.9,158 87.9,159.8 "
   id="polygon947"
   transform="translate(0.06262638,0.2659269)" />
<path
   class="st0"
   d="m 20.862626,138.86593 c -0.2,-3.4 -2.9,-5.6 -2.9,-5.6 -0.7,-0.6 0,-1.1 0,-1.1 1.1,-1 1.5,-2.9 1.5,-2.9 0.3,-1.2 0.3,-2.6 0.1,-3.9 -0.2,-0.7 -0.4,-1.4 -0.7,-2 -0.4,-0.7 -1,-1.3 -1.6,-1.7 -0.7,-0.4 -1.4,-0.7 -2.1,-0.8 -0.8,-0.2 -1.7,-0.3 -2.7,-0.3 H 0.46262638 c -0.2,0 -0.3,0.1 -0.3,0.3 v 26.5 c 0,0.2 0.1,0.3 0.3,0.3 H 12.062626 c 1.4,0 2.5,-0.1 3.5,-0.5 1.4,-0.4 2.5,-1.1 3.5,-1.9 1.2,-1.1 1.9,-2.9 2,-4.9 -0.1,-0.4 -0.1,-1 -0.2,-1.5 m -15.5999996,-12.7 c 0,-0.8 0.5,-1.2 1.3,-1.2 h 3.7999996 c 0.1,0 0.2,0 0.3,0 0.3,0 0.6,0 0.8,0 0.4,0.1 0.9,0.2 1.4,0.3 0.6,0.3 1,0.7 1.3,1.2 0.3,0.5 0.4,1.2 0.4,2.2 0,0.6 -0.2,1 -0.3,1.4 -0.4,0.7 -0.9,1.2 -1.7,1.4 -0.7,0.3 -1.4,0.3 -2.1,0.3 H 6.4626264 v 0 c -0.1,0 -1.2,0 -1.2,-1.5 z m 8.2999996,16.9 c -1,0.4 -2,0.4 -3,0.4 -0.2,0 -0.5,0 -0.6999996,0 h -0.4 -2.6 c -0.4,0 -0.7,0 -1.1,-0.3 -0.4,-0.3 -0.5,-0.8 -0.5,-1.2 0,-0.3 0,-0.5 0,-0.8 v -4.3 c 0,-0.5 0.1,-0.8 0.3,-1 0.2,-0.2 0.5,-0.4 0.8,-0.4 h 4.7999996 c 0.6,0 1.4,0.1 2.1,0.3 1.4,0.4 2.4,2 2.4,3.6 0,1.9 -0.7,3.2 -2.1,3.7"
   id="path949" />
<path
   class="st0"
   d="m 49.662626,147.46593 v 0 l -9.4,-26.6 c -0.1,-0.2 -0.2,-0.2 -0.3,-0.2 h -4.9 c -0.1,0 -0.2,0 -0.3,0.2 l -9.4,26.5 v 0 c 0,0.1 0.1,0.3 0.2,0.3 v 0 h 4.5 c 0.1,0 0.2,0 0.3,-0.2 l 1.6,-5 c 0.1,-0.3 0.3,-0.6 0.5,-0.8 0.3,-0.2 0.6,-0.3 1.1,-0.3 h 7.4 c 0.5,0 0.9,0.1 1.1,0.3 0.3,0.2 0.5,0.6 0.5,0.8 l 1.6,5 c 0.1,0.2 0.2,0.2 0.3,0.2 h 4.6 v 0 c 0.5,0.1 0.6,-0.1 0.6,-0.2 m -9,-10.5 c -0.2,0.3 -0.4,0.4 -0.7,0.4 -0.3,0 -0.6,0 -0.9,0 h -3 c -0.3,0 -0.6,0 -0.9,0 -0.3,0 -0.6,-0.2 -0.7,-0.4 -0.2,-0.2 -0.2,-0.6 -0.1,-0.9 0,-0.1 2.4,-7.6 2.6,-7.9 0.2,-0.4 0.5,-0.4 0.5,-0.4 v 0 c 0.1,0 0.4,0 0.6,0.5 0.2,0.3 2.6,7.8 2.6,7.9 0.2,0.3 0.2,0.6 0,0.8"
   id="path951" />
<path
   class="st0"
   d="m 78.162626,147.46593 v 0 c 0,-0.1 -0.1,-0.1 0,0 l -9.7,-14.7 c 0,-0.1 -0.1,-0.1 -0.1,-0.2 0,-0.1 -0.1,-0.2 -0.2,-0.3 -0.3,-0.5 -0.2,-1.1 0.2,-1.7 0.2,-0.3 7,-7.6 8.7,-9.5 0,0 0.1,-0.1 0.1,-0.2 0,-0.2 -0.1,-0.3 -0.3,-0.3 h -5.5 c -0.1,0 -0.2,0 -0.2,0.1 v 0 l -8.9,10.1 c -0.1,0.1 -0.2,0.2 -0.4,0.4 -0.2,0.1 -0.4,0.2 -0.6,0.2 -0.3,0 -0.5,-0.1 -0.6,-0.4 -0.1,-0.2 -0.1,-0.5 -0.1,-0.7 v -9.4 c 0,-0.2 -0.1,-0.3 -0.3,-0.3 h -4.5 c -0.2,0 -0.3,0.1 -0.3,0.3 v 26.5 c 0,0.2 0.1,0.3 0.3,0.3 h 4.5 c 0.2,0 0.3,-0.1 0.3,-0.3 v -7.1 c 0,-0.3 0,-0.6 0.1,-0.9 0.1,-0.5 0.4,-0.8 0.6,-1.1 l 1,-1.1 c 0.3,-0.4 0.6,-0.7 0.7,-0.7 0.2,-0.2 0.5,-0.5 0.8,-0.6 0.3,-0.1 0.7,0 0.9,0.3 0.1,0.1 0.2,0.2 0.3,0.3 l 0.1,0.1 6.9,11 c 0.1,0.1 0.2,0.1 0.2,0.1 h 5.7 v 0 c 0.2,0.1 0.3,-0.1 0.3,-0.2"
   id="path953" />
<path
   class="st0"
   d="M 102.56263,143.06593 H 90.362626 c -0.3,0 -0.8,0 -1.2,-0.2 -0.3,-0.2 -0.5,-0.6 -0.5,-0.9 v -4.8 c 0,-0.5 0.2,-0.9 0.6,-1.1 0.3,-0.1 0.6,-0.1 0.8,-0.1 h 10.800004 c 0.2,0 0.3,-0.1 0.3,-0.3 v -3.7 c 0,-0.2 -0.1,-0.3 -0.3,-0.3 H 89.962626 c -0.3,0 -0.6,0 -0.8,-0.1 -0.4,-0.2 -0.6,-0.6 -0.6,-1.1 v -3.9 c 0,-0.3 0.2,-0.7 0.5,-0.9 0.3,-0.2 0.8,-0.2 1.1,-0.2 h 11.800004 c 0.2,0 0.3,-0.1 0.3,-0.3 v -4.1 c 0,-0.2 -0.1,-0.3 -0.3,-0.3 H 83.562626 c -0.1,0 -0.2,0.1 -0.2,0.3 v 24.9 1.6 c 0,0.2 0.1,0.3 0.3,0.3 h 18.700004 c 0.2,0 0.3,-0.1 0.3,-0.3 v -1.6 -2.5 c 0.2,-0.3 0.1,-0.4 -0.1,-0.4"
   id="path955" />
<g
   inkscape:groupmode="layer"
   id="layer1"
   inkscape:label="Layer 1"
   transform="translate(0.06262638,0.2659269)"><path
     class="st0"
     d="M 32.32246,-0.2126669 28.737374,-0.2659269 3.7373736,61.434073 h -0.1 v -61.6999999 0 0 h -3.69999998 v 96.4999969 0 H 3.6373736 v 0 -24.899997 0 l 9.8000004,-24.1 v 0 l 17.5,48.999997 v 0 c 11.717194,0.0114 24.877621,-0.009 35.880752,0.008 M 46.837374,40.334073 v 0 m 0,0 -13.1,-36.7999999 v 0 m 9.1,36.7999999 h -26.5 v 0 l 14.1,-34.8999999 v 0 l 12.4,34.8999999 c 0.1,0 0,0 0,0 m -26.5,3.8 v 0 h 27.8 v 0 l 19.11038,52.114897 -28.221783,5.4e-4 M 48.137374,44.134073 v 0"
     id="path927-9"
     style="fill:#1a1818;fill-opacity:1"
     sodipodi:nodetypes="ccccccccccccccccccccccccccccccccccccccc" /></g></svg>
